<svg width="3746" height="1971" viewBox="0 0 3746 1971" fill="none" xmlns="http://www.w3.org/2000/svg">
<g filter="url(#filter0_d_3855_298)">
<path d="M1827.96 0L3723.72 257.672C3734.67 259.159 3742.34 269.238 3740.85 280.183L3571.73 1524.42C3538.26 1770.69 3311.49 1943.19 3065.22 1909.72L1595.54 1709.96L1827.96 0Z" fill="black"/>
</g>
<g filter="url(#filter1_d_3855_298)">
<path d="M1858.82 1081.58V1222.98H1618.02V739.282H1872.12C1955.65 739.282 2017.02 753.049 2056.22 780.582C2095.42 807.649 2115.02 854.782 2115.02 921.982C2115.02 972.849 2098.45 1010.42 2065.32 1034.68C2093.32 1084.62 2114.55 1147.38 2129.02 1222.98H1898.72C1894.99 1175.85 1888.45 1134.32 1879.12 1098.38L1874.22 1081.58H1858.82ZM1858.82 1024.88H1879.12C1884.72 1024.88 1889.39 1023.02 1893.12 1019.28C1896.85 1015.55 1898.72 1010.65 1898.72 1004.58V962.582C1898.72 956.516 1896.85 951.849 1893.12 948.582C1889.39 944.849 1884.72 942.982 1879.12 942.982H1858.82V1024.88ZM2195.11 739.282H2587.11V942.982H2435.91V970.982H2587.11V1015.08H2435.91V1043.08H2593.41V1222.98H2195.11V739.282ZM2668.29 1222.98V739.282H2909.09V1222.98H2668.29ZM2984.93 1222.98V739.282H3241.13C3321.87 739.282 3380.43 750.949 3416.83 774.282C3453.23 797.616 3471.43 835.182 3471.43 886.982C3471.43 905.182 3469.1 921.982 3464.43 937.382C3459.77 952.782 3455.1 963.749 3450.43 970.282L3443.43 980.082C3459.3 988.016 3470.5 1007.38 3477.03 1038.18C3479.83 1050.78 3481.23 1065.25 3481.23 1081.58C3481.23 1125.45 3467.7 1159.98 3440.63 1185.18C3414.03 1210.38 3373.9 1222.98 3320.23 1222.98H2984.93ZM3265.63 980.782V944.382C3265.63 938.316 3263.77 933.649 3260.03 930.382C3256.3 926.649 3251.63 924.782 3246.03 924.782H3225.73V980.782H3265.63ZM3285.23 1015.08H3225.73V1054.98H3285.23C3290.37 1054.98 3294.8 1053.12 3298.53 1049.38C3302.73 1045.18 3304.83 1040.28 3304.83 1034.68C3304.83 1029.08 3302.97 1024.42 3299.23 1020.68C3295.5 1016.95 3290.83 1015.08 3285.23 1015.08Z" fill="white"/>
</g>
<g filter="url(#filter2_d_3855_298)">
<path d="M258.073 731.282C296.339 731.282 332.039 733.849 365.173 738.982C398.773 743.649 422.806 748.549 437.273 753.682L458.273 761.382V961.582C420.473 944.316 368.673 935.682 302.873 935.682V953.882C363.539 958.549 407.173 970.682 433.773 990.282C460.373 1009.88 473.673 1039.52 473.673 1079.18C473.673 1126.78 454.306 1163.65 415.573 1189.78C376.839 1215.92 317.106 1228.98 236.373 1228.98C190.173 1228.98 149.339 1226.42 113.873 1221.28C78.406 1215.68 54.606 1210.32 42.4727 1205.18L23.5727 1196.78V1022.48C27.7727 1024.35 34.0727 1026.92 42.4727 1030.18C50.8727 1033.45 69.5393 1037.65 98.4727 1042.78C127.873 1047.92 159.373 1050.48 192.973 1050.48V1033.68C136.039 1029.48 93.106 1017.35 64.1727 997.282C35.2393 977.216 20.7727 942.216 20.7727 892.282C20.7727 842.349 40.606 803.149 80.2727 774.682C119.939 745.749 179.206 731.282 258.073 731.282ZM806.457 961.582V1000.08C815.79 1001.02 832.124 1001.48 855.457 1001.48C899.324 1001.48 938.524 1000.08 973.057 997.282L989.857 995.882V1205.18C944.59 1221.05 880.19 1228.98 796.657 1228.98C713.59 1228.98 649.89 1207.75 605.557 1165.28C561.69 1122.82 539.757 1059.82 539.757 976.282C539.757 892.282 561.457 830.449 604.857 790.782C648.257 751.116 712.89 731.282 798.757 731.282C834.69 731.282 868.524 733.382 900.257 737.582C932.457 741.782 955.324 745.982 968.857 750.182L989.857 756.482V972.082C949.257 965.082 888.124 961.582 806.457 961.582ZM1335.78 956.682V738.282H1566.08V1221.98H1335.78V1058.88H1295.18V1221.98H1065.58V738.282H1295.18V956.682H1335.78Z" fill="black"/>
</g>
<defs>
<filter id="filter0_d_3855_298" x="1591.54" y="0" width="2153.49" height="1921.87" filterUnits="userSpaceOnUse" color-interpolation-filters="sRGB">
<feFlood flood-opacity="0" result="BackgroundImageFix"/>
<feColorMatrix in="SourceAlpha" type="matrix" values="0 0 0 0 0 0 0 0 0 0 0 0 0 0 0 0 0 0 127 0" result="hardAlpha"/>
<feOffset dy="4"/>
<feGaussianBlur stdDeviation="2"/>
<feComposite in2="hardAlpha" operator="out"/>
<feColorMatrix type="matrix" values="0 0 0 0 0 0 0 0 0 0 0 0 0 0 0 0 0 0 0.25 0"/>
<feBlend mode="normal" in2="BackgroundImageFix" result="effect1_dropShadow_3855_298"/>
<feBlend mode="normal" in="SourceGraphic" in2="effect1_dropShadow_3855_298" result="shape"/>
</filter>
<filter id="filter1_d_3855_298" x="1614.02" y="739.283" width="1871.21" height="491.699" filterUnits="userSpaceOnUse" color-interpolation-filters="sRGB">
<feFlood flood-opacity="0" result="BackgroundImageFix"/>
<feColorMatrix in="SourceAlpha" type="matrix" values="0 0 0 0 0 0 0 0 0 0 0 0 0 0 0 0 0 0 127 0" result="hardAlpha"/>
<feOffset dy="4"/>
<feGaussianBlur stdDeviation="2"/>
<feComposite in2="hardAlpha" operator="out"/>
<feColorMatrix type="matrix" values="0 0 0 0 0 0 0 0 0 0 0 0 0 0 0 0 0 0 0.25 0"/>
<feBlend mode="normal" in2="BackgroundImageFix" result="effect1_dropShadow_3855_298"/>
<feBlend mode="normal" in="SourceGraphic" in2="effect1_dropShadow_3855_298" result="shape"/>
</filter>
<filter id="filter2_d_3855_298" x="16.7734" y="731.283" width="1553.3" height="505.699" filterUnits="userSpaceOnUse" color-interpolation-filters="sRGB">
<feFlood flood-opacity="0" result="BackgroundImageFix"/>
<feColorMatrix in="SourceAlpha" type="matrix" values="0 0 0 0 0 0 0 0 0 0 0 0 0 0 0 0 0 0 127 0" result="hardAlpha"/>
<feOffset dy="4"/>
<feGaussianBlur stdDeviation="2"/>
<feComposite in2="hardAlpha" operator="out"/>
<feColorMatrix type="matrix" values="0 0 0 0 0 0 0 0 0 0 0 0 0 0 0 0 0 0 0.25 0"/>
<feBlend mode="normal" in2="BackgroundImageFix" result="effect1_dropShadow_3855_298"/>
<feBlend mode="normal" in="SourceGraphic" in2="effect1_dropShadow_3855_298" result="shape"/>
</filter>
</defs>
</svg>
